<svg xmlns="http://www.w3.org/2000/svg" version="1.1" width="12.5in" height="9.5in" viewBox = " 0 0 1125 855" >
<!-- Front--> 
<g transform="translate(22.5, 22.5) " > 
<polygon style="stroke:#000000; fill:none; stroke-width:0.9" points="0, 0 54, 0 54, 10.62 108, 10.62 108, 0 162, 0 162, 10.62 216, 10.62 216, 0 270, 0 270, 54 259.38, 54 259.38, 108 270, 108 270, 162 259.38, 162 259.38, 216 270, 216 270, 270 216, 270 216, 259.38 162, 259.38 162, 270 108, 270 108, 259.38 54, 259.38 54, 270 0, 270 0, 216 10.62, 216 10.62, 162 0, 162 0, 108 10.62, 108 10.62, 54 0, 54 "/> 
</g>
<!-- Back--> 
<g transform="translate(292.5, 22.5) " > 
<polygon style="stroke:#000000; fill:none; stroke-width:0.9" points="0, 0 54, 0 54, 10.62 108, 10.62 108, 0 162, 0 162, 10.62 216, 10.62 216, 0 270, 0 270, 54 259.38, 54 259.38, 108 270, 108 270, 162 259.38, 162 259.38, 216 270, 216 270, 270 216, 270 216, 259.38 162, 259.38 162, 270 108, 270 108, 259.38 54, 259.38 54, 270 0, 270 0, 216 10.62, 216 10.62, 162 0, 162 0, 108 10.62, 108 10.62, 54 0, 54 "/> 
</g>
<!-- Left--> 
<g transform="translate(562.5, 22.5) " > 
<polygon style="stroke:#000000; fill:none; stroke-width:0.9" points="10.62, 0 67.5, 0 67.5, 10.62 135, 10.62 135, 0 189, 0 189, 10.62 243, 10.62 243, 0 297, 0 297, 10.62 351, 10.62 351, 0 405, 0 405, 10.62 472.5, 10.62 472.5, 0 529.38, 0 529.38, 54 540, 54 540, 108 529.38, 108 529.38, 162 540, 162 540, 216 529.38, 216 529.38, 270 472.5, 270 472.5, 259.38 405, 259.38 405, 270 351, 270 351, 259.38 297, 259.38 297, 270 243, 270 243, 259.38 189, 259.38 189, 270 135, 270 135, 259.38 67.5, 259.38 67.5, 270 10.62, 270 10.62, 216 0, 216 0, 162 10.62, 162 10.62, 108 0, 108 0, 54 10.62, 54 "/> 
</g>
<!-- Right--> 
<g transform="translate(562.5, 292.5) " > 
<polygon style="stroke:#000000; fill:none; stroke-width:0.9" points="10.62, 0 67.5, 0 67.5, 10.62 135, 10.62 135, 0 189, 0 189, 10.62 243, 10.62 243, 0 297, 0 297, 10.62 351, 10.62 351, 0 405, 0 405, 10.62 472.5, 10.62 472.5, 0 529.38, 0 529.38, 54 540, 54 540, 108 529.38, 108 529.38, 162 540, 162 540, 216 529.38, 216 529.38, 270 472.5, 270 472.5, 259.38 405, 259.38 405, 270 351, 270 351, 259.38 297, 259.38 297, 270 243, 270 243, 259.38 189, 259.38 189, 270 135, 270 135, 259.38 67.5, 259.38 67.5, 270 10.62, 270 10.62, 216 0, 216 0, 162 10.62, 162 10.62, 108 0, 108 0, 54 10.62, 54 "/> 
</g>
<!-- Top--> 
<g transform="translate(22.5, 292.5) " > 
<polygon style="stroke:#000000; fill:none; stroke-width:0.9" points="10.62, 10.62 54, 10.62 54, 0 108, 0 108, 10.62 162, 10.62 162, 0 216, 0 216, 10.62 259.38, 10.62 259.38, 67.5 270, 67.5 270, 135 259.38, 135 259.38, 189 270, 189 270, 243 259.38, 243 259.38, 297 270, 297 270, 351 259.38, 351 259.38, 405 270, 405 270, 472.5 259.38, 472.5 259.38, 529.38 216, 529.38 216, 540 162, 540 162, 529.38 108, 529.38 108, 540 54, 540 54, 529.38 10.62, 529.38 10.62, 472.5 0, 472.5 0, 405 10.62, 405 10.62, 351 0, 351 0, 297 10.62, 297 10.62, 243 0, 243 0, 189 10.62, 189 10.62, 135 0, 135 0, 67.5 10.62, 67.5 "/> 
</g>
<!-- Bottom--> 
<g transform="translate(292.5, 292.5) " > 
<polygon style="stroke:#000000; fill:none; stroke-width:0.9" points="10.62, 10.62 54, 10.62 54, 0 108, 0 108, 10.62 162, 10.62 162, 0 216, 0 216, 10.62 259.38, 10.62 259.38, 67.5 270, 67.5 270, 135 259.38, 135 259.38, 189 270, 189 270, 243 259.38, 243 259.38, 297 270, 297 270, 351 259.38, 351 259.38, 405 270, 405 270, 472.5 259.38, 472.5 259.38, 529.38 216, 529.38 216, 540 162, 540 162, 529.38 108, 529.38 108, 540 54, 540 54, 529.38 10.62, 529.38 10.62, 472.5 0, 472.5 0, 405 10.62, 405 10.62, 351 0, 351 0, 297 10.62, 297 10.62, 243 0, 243 0, 189 10.62, 189 10.62, 135 0, 135 0, 67.5 10.62, 67.5 "/> 
</g></svg>