<svg xmlns="http://www.w3.org/2000/svg" version="1.1" width="9.5in" height="8.5in" viewBox = " 0 0 855 765" >
<!-- Front--> 
<g transform="translate(22.5, 22.5) " > 
<polygon style="stroke:#000000; fill:none; stroke-width:0.9" points="0, 0 54, 0 54, 10.62 108, 10.62 108, 0 162, 0 162, 10.62 216, 10.62 216, 0 270, 0 270, 76.50000000000001 259.38, 76.50000000000001 259.38, 153.00000000000003 270, 153.00000000000003 270, 207.00000000000003 259.38, 207.00000000000003 259.38, 283.50000000000006 270, 283.50000000000006 270, 360 216, 360 216, 349.38 162, 349.38 162, 360 108, 360 108, 349.38 54, 349.38 54, 360 0, 360.00000000000006 0, 283.50000000000006 10.62, 283.50000000000006 10.62, 207.00000000000003 0, 207.00000000000003 0, 153.00000000000003 10.62, 153.00000000000003 10.62, 76.50000000000001 0, 76.50000000000001 "/> 
</g>
<!-- Back--> 
<g transform="translate(292.5, 22.5) " > 
<polygon style="stroke:#000000; fill:none; stroke-width:0.9" points="0, 0 54, 0 54, 10.62 108, 10.62 108, 0 162, 0 162, 10.62 216, 10.62 216, 0 270, 0 270, 76.50000000000001 259.38, 76.50000000000001 259.38, 153.00000000000003 270, 153.00000000000003 270, 207.00000000000003 259.38, 207.00000000000003 259.38, 283.50000000000006 270, 283.50000000000006 270, 360 216, 360 216, 349.38 162, 349.38 162, 360 108, 360 108, 349.38 54, 349.38 54, 360 0, 360.00000000000006 0, 283.50000000000006 10.62, 283.50000000000006 10.62, 207.00000000000003 0, 207.00000000000003 0, 153.00000000000003 10.62, 153.00000000000003 10.62, 76.50000000000001 0, 76.50000000000001 "/> 
</g>
<!-- Left--> 
<g transform="translate(562.5, 22.5) " > 
<polygon style="stroke:#000000; fill:none; stroke-width:0.9" points="10.62, 0 54, 0 54, 10.62 108, 10.62 108, 0 162, 0 162, 10.62 216, 10.62 216, 0 259.38, 0 259.38, 76.50000000000001 270, 76.50000000000001 270, 153.00000000000003 259.38, 153.00000000000003 259.38, 207.00000000000003 270, 207.00000000000003 270, 283.50000000000006 259.38, 283.50000000000006 259.38, 360 216, 360 216, 349.38 162, 349.38 162, 360 108, 360 108, 349.38 54, 349.38 54, 360 10.62, 360.00000000000006 10.62, 283.50000000000006 0, 283.50000000000006 0, 207.00000000000003 10.62, 207.00000000000003 10.62, 153.00000000000003 0, 153.00000000000003 0, 76.50000000000001 10.62, 76.50000000000001 "/> 
</g>
<!-- Right--> 
<g transform="translate(562.5, 382.5) " > 
<polygon style="stroke:#000000; fill:none; stroke-width:0.9" points="10.62, 0 54, 0 54, 10.62 108, 10.62 108, 0 162, 0 162, 10.62 216, 10.62 216, 0 259.38, 0 259.38, 76.50000000000001 270, 76.50000000000001 270, 153.00000000000003 259.38, 153.00000000000003 259.38, 207.00000000000003 270, 207.00000000000003 270, 283.50000000000006 259.38, 283.50000000000006 259.38, 360 216, 360 216, 349.38 162, 349.38 162, 360 108, 360 108, 349.38 54, 349.38 54, 360 10.62, 360.00000000000006 10.62, 283.50000000000006 0, 283.50000000000006 0, 207.00000000000003 10.62, 207.00000000000003 10.62, 153.00000000000003 0, 153.00000000000003 0, 76.50000000000001 10.62, 76.50000000000001 "/> 
</g>
<!-- Top--> 
<g transform="translate(22.5, 382.5) " > 
<polygon style="stroke:#000000; fill:none; stroke-width:0.9" points="10.62, 10.62 54, 10.62 54, 0 108, 0 108, 10.62 162, 10.62 162, 0 216, 0 216, 10.62 259.38, 10.62 259.38, 54 270, 54 270, 108 259.38, 108 259.38, 162 270, 162 270, 216 259.38, 216 259.38, 259.38 216, 259.38 216, 270 162, 270 162, 259.38 108, 259.38 108, 270 54, 270 54, 259.38 10.62, 259.38 10.62, 216 0, 216 0, 162 10.62, 162 10.62, 108 0, 108 0, 54 10.62, 54 "/> 
</g>
<!-- Bottom--> 
<g transform="translate(292.5, 382.5) " > 
<polygon style="stroke:#000000; fill:none; stroke-width:0.9" points="10.62, 10.62 54, 10.62 54, 0 108, 0 108, 10.62 162, 10.62 162, 0 216, 0 216, 10.62 259.38, 10.62 259.38, 54 270, 54 270, 108 259.38, 108 259.38, 162 270, 162 270, 216 259.38, 216 259.38, 259.38 216, 259.38 216, 270 162, 270 162, 259.38 108, 259.38 108, 270 54, 270 54, 259.38 10.62, 259.38 10.62, 216 0, 216 0, 162 10.62, 162 10.62, 108 0, 108 0, 54 10.62, 54 "/> 
</g></svg>